<svg width="24" height="24" viewBox="0 0 24 24" fill="none" xmlns="http://www.w3.org/2000/svg">
<path d="M12.026 2C7.13292 1.99937 2.9618 5.54799 2.17838 10.3779C1.39497 15.2079 4.23058 19.893 8.87299 21.439C9.37299 21.529 9.55199 21.222 9.55199 20.958C9.55199 20.721 9.54398 20.093 9.54099 19.258C6.76599 19.858 6.17999 17.92 6.17999 17.92C5.9973 17.317 5.60456 16.7993 5.07299 16.461C4.17299 15.842 5.14199 15.856 5.14199 15.856C5.78266 15.9438 6.34654 16.3235 6.66899 16.884C6.94192 17.3803 7.40174 17.747 7.94629 17.9026C8.49084 18.0583 9.075 17.99 9.56899 17.713C9.61541 17.207 9.84052 16.7341 10.204 16.379C7.98999 16.128 5.66199 15.272 5.66199 11.449C5.6497 10.4602 6.01688 9.5043 6.68799 8.778C6.38434 7.91731 6.4201 6.97325 6.78799 6.138C6.78799 6.138 7.62499 5.869 9.52999 7.159C11.1638 6.71101 12.8881 6.71101 14.522 7.159C16.428 5.868 17.264 6.138 17.264 6.138C17.6336 6.97286 17.6694 7.91757 17.364 8.778C18.0375 9.50423 18.4044 10.4626 18.388 11.453C18.388 15.286 16.058 16.128 13.836 16.375C14.3153 16.8651 14.5611 17.5373 14.511 18.221C14.511 19.555 14.499 20.631 14.499 20.958C14.499 21.225 14.677 21.535 15.186 21.437C19.8265 19.8884 22.659 15.203 21.874 10.3743C21.089 5.54565 16.918 1.99888 12.026 2Z" fill="#2E3A59"/>
</svg>
