<svg width="24" height="24" viewBox="0 0 24 24" fill="none" xmlns="http://www.w3.org/2000/svg">
<path d="M12.002 21.041C9.54201 21.041 9.25201 21.028 8.29201 20.986C7.54339 20.9614 6.80445 20.8092 6.10701 20.536C4.90033 20.0664 3.94615 19.1119 3.47701 17.905C3.21432 17.205 3.07263 16.4655 3.05801 15.718C3.00201 14.76 3.00201 14.446 3.00201 12.005C3.00201 9.538 3.01501 9.25 3.05801 8.295C3.07295 7.54853 3.21464 6.81001 3.47701 6.111C3.94565 4.90253 4.90137 3.94718 6.11001 3.479C6.80866 3.21521 7.54736 3.07315 8.29401 3.059C9.24901 3.005 9.56301 3.005 12.002 3.005C14.482 3.005 14.767 3.018 15.712 3.059C16.4606 3.07327 17.2013 3.21531 17.902 3.479C19.1103 3.94771 20.0659 4.90288 20.535 6.111C20.8021 6.8202 20.9446 7.57026 20.956 8.328C21.012 9.28601 21.012 9.59901 21.012 12.039C21.012 14.479 20.998 14.799 20.956 15.746C20.9411 16.4942 20.7991 17.2344 20.536 17.935C20.0657 19.1427 19.1101 20.0976 17.902 20.567C17.2023 20.8292 16.4631 20.9709 15.716 20.986C14.761 21.041 14.448 21.041 12.002 21.041ZM11.968 4.588C9.52201 4.588 9.26801 4.6 8.31301 4.643C7.743 4.65056 7.17849 4.75575 6.64401 4.954C5.85477 5.25601 5.23024 5.878 4.92501 6.666C4.72523 7.2063 4.62002 7.77698 4.61401 8.353C4.56101 9.322 4.56101 9.576 4.56101 12.005C4.56101 14.405 4.57001 14.696 4.61401 15.659C4.62297 16.2292 4.72811 16.7938 4.92501 17.329C5.23069 18.1165 5.85511 18.738 6.64401 19.04C7.17813 19.2396 7.74287 19.3448 8.31301 19.351C9.28101 19.407 9.53601 19.407 11.968 19.407C14.421 19.407 14.675 19.395 15.622 19.351C16.1924 19.3441 16.7574 19.2389 17.292 19.04C18.0765 18.7354 18.6969 18.1153 19.002 17.331C19.2014 16.7903 19.3066 16.2193 19.313 15.643H19.324C19.367 14.687 19.367 14.432 19.367 11.989C19.367 9.54601 19.356 9.289 19.313 8.334C19.304 7.76446 19.1989 7.20052 19.002 6.666C18.6976 5.88058 18.0771 5.2593 17.292 4.954C16.7575 4.75475 16.1925 4.64953 15.622 4.643C14.655 4.588 14.402 4.588 11.968 4.588ZM12.002 16.624C10.132 16.6252 8.44543 15.4997 7.72888 13.7725C7.01232 12.0452 7.40692 10.0563 8.72865 8.73347C10.0504 7.4106 12.0389 7.01428 13.7668 7.72934C15.4947 8.4444 16.6216 10.13 16.622 12C16.6193 14.5511 14.5531 16.619 12.002 16.624ZM12.002 8.998C10.3452 8.998 9.00201 10.3412 9.00201 11.998C9.00201 13.6549 10.3452 14.998 12.002 14.998C13.6589 14.998 15.002 13.6549 15.002 11.998C14.9982 10.3427 13.6573 9.00185 12.002 8.998ZM16.802 8.28501C16.2074 8.2828 15.7269 7.79959 15.728 7.20501C15.7291 6.61043 16.2114 6.12901 16.806 6.12901C17.4006 6.12901 17.8829 6.61042 17.884 7.205C17.8843 7.49187 17.7703 7.76703 17.5673 7.96968C17.3642 8.17234 17.0889 8.2858 16.802 8.28501Z" fill="#2E3A59"/>
</svg>
